<svg width="16" height="17" viewBox="0 0 16 17" fill="none" xmlns="http://www.w3.org/2000/svg">
<mask id="mask0_5402_10753" style="mask-type:luminance" maskUnits="userSpaceOnUse" x="0" y="0" width="16" height="17">
<path d="M16 0.5H0V16.5H16V0.5Z" fill="white"/>
</mask>
<g mask="url(#mask0_5402_10753)">
<path fill-rule="evenodd" clip-rule="evenodd" d="M15.3233 9.07877H13.9737C13.8881 9.07552 13.8027 9.08793 13.7223 9.1153C13.6419 9.14266 13.5682 9.18444 13.5054 9.23822C13.4427 9.292 13.3921 9.35671 13.3565 9.42862C13.321 9.50053 13.3013 9.57821 13.2985 9.65719C13.1397 10.9022 12.4723 12.0446 11.4324 12.8518C10.3924 13.659 9.0579 14.0704 7.70058 14.0023C6.34327 13.9341 5.06513 13.3915 4.12633 12.4849C3.18754 11.5783 2.65866 10.3758 2.64734 9.1223C2.6607 7.8175 3.22885 6.56965 4.22958 5.64718C5.23031 4.72471 6.58367 4.20131 7.99854 4.18958V4.98932C7.99854 5.34492 8.28734 5.52273 8.62574 5.34492L13.0577 3.2563C13.3961 3.07776 13.3961 2.81364 13.0577 2.67789L8.62494 0.590002C8.53692 0.541101 8.43833 0.510627 8.33614 0.500732C8.14254 0.500732 7.99854 0.679273 7.99854 0.943394V1.74535C6.44187 1.74912 4.9202 2.17163 3.62005 2.96111C2.3199 3.75059 1.29776 4.87273 0.678898 6.19C0.0600379 7.50726 -0.12865 8.96242 0.135963 10.3771C0.400575 11.7918 1.10699 13.1046 2.16863 14.1545C3.23026 15.2044 4.60099 15.9459 6.11281 16.2881C7.62463 16.6303 9.21185 16.5582 10.6799 16.0808C12.148 15.6034 13.4332 14.7414 14.3779 13.6004C15.3226 12.4594 15.8858 11.089 15.9985 9.65719C15.9999 9.5772 15.983 9.49784 15.949 9.42424C15.915 9.35065 15.8646 9.28446 15.8011 9.22994C15.7376 9.17543 15.6624 9.1338 15.5804 9.10776C15.4984 9.08173 15.4114 9.07185 15.3249 9.07877" fill="#64748B"/>
</g>
</svg>
