<svg width="16" height="17" viewBox="0 0 16 17" fill="none" xmlns="http://www.w3.org/2000/svg">
<path d="M2.66657 10.4328C2.17126 9.92679 1.79761 9.31465 1.57392 8.6428C1.35023 7.97095 1.28237 7.25701 1.37547 6.55504C1.46858 5.85308 1.7202 5.18151 2.1113 4.5912C2.50239 4.00089 3.02269 3.50732 3.63279 3.14788C4.24289 2.78843 4.92679 2.57255 5.63268 2.51656C6.33857 2.46058 7.04795 2.56597 7.70708 2.82475C8.36621 3.08353 8.9578 3.48892 9.43706 4.0102C9.91631 4.53149 10.2706 5.155 10.4732 5.83351H11.6666C12.3102 5.83344 12.9369 6.04039 13.4539 6.4238C13.9709 6.80721 14.3509 7.34675 14.5377 7.96271C14.7246 8.57867 14.7084 9.2384 14.4915 9.84443C14.2746 10.4505 13.8685 10.9707 13.3332 11.3282" stroke="#0082CC" stroke-width="1.66667" stroke-linecap="round" stroke-linejoin="round"/>
<path d="M8 8.5V14.5" stroke="#0082CC" stroke-width="1.66667" stroke-linecap="round" stroke-linejoin="round"/>
<path d="M5.33301 11.834L7.99967 14.5007L10.6663 11.834" stroke="#0082CC" stroke-width="1.66667" stroke-linecap="round" stroke-linejoin="round"/>
</svg>
