<svg width="105" height="105" viewBox="0 0 105 105" fill="none" xmlns="http://www.w3.org/2000/svg">
<mask id="mask0_28_1439" style="mask-type:luminance" maskUnits="userSpaceOnUse" x="0" y="0" width="105" height="105">
<path d="M105 0H0V105H105V0Z" fill="white"/>
</mask>
<g mask="url(#mask0_28_1439)">
<path d="M52.127 0.487C41.8173 0.487 31.7391 3.54419 23.1668 9.27198C14.5946 14.9998 7.91332 23.1409 3.96796 32.6659C0.0225859 42.1908 -1.0097 52.6718 1.00163 62.7835C3.01296 72.8951 7.97758 82.1833 15.2677 89.4734C22.5578 96.7635 31.8459 101.728 41.9576 103.739C52.0692 105.751 62.5502 104.718 72.0752 100.773C81.6001 96.8277 89.7412 90.1465 95.469 81.5742C101.197 73.002 104.254 62.9237 104.254 52.614C104.254 45.7685 102.906 38.99 100.287 32.6656C97.6671 26.3411 93.8275 20.5946 88.987 15.7541C84.1465 10.9136 78.3999 7.07393 72.0755 4.4544C65.751 1.83486 58.9725 0.486737 52.127 0.487ZM52.127 98.226C41.0305 98.2312 30.3122 94.1928 21.978 86.8665C13.6438 79.5402 8.26473 69.4281 6.84741 58.4224C5.43008 47.4167 8.07162 36.2717 14.2777 27.0729C20.4838 17.8741 29.8291 11.2519 40.565 8.44548C51.3008 5.63908 62.6914 6.8408 72.6052 11.8258C82.519 16.8107 90.2767 25.2373 94.4265 35.5287C98.5764 45.8201 98.834 57.271 95.1512 67.7386C91.4684 78.2062 84.0976 86.9732 74.418 92.399C67.6183 96.2405 59.9368 98.2484 52.127 98.226Z" fill="#E46463"/>
</g>
<path d="M72.5399 66.546L58.5339 52.535L72.5399 38.525C73.2919 37.7204 73.7019 36.6552 73.6836 35.5541C73.6654 34.453 73.2202 33.402 72.442 32.6228C71.6638 31.8436 70.6134 31.397 69.5124 31.3773C68.4113 31.3575 67.3456 31.7662 66.5399 32.517L52.5299 46.527L38.5199 32.517C38.1391 32.099 37.6752 31.7651 37.1579 31.5366C36.6407 31.3082 36.0814 31.1902 35.5159 31.1902C34.9505 31.1902 34.3912 31.3082 33.874 31.5366C33.3567 31.7651 32.8928 32.099 32.5119 32.517C32.0988 32.9008 31.7693 33.3656 31.5439 33.8825C31.3186 34.3993 31.2023 34.9571 31.2023 35.521C31.2023 36.0849 31.3186 36.6427 31.5439 37.1595C31.7693 37.6764 32.0988 38.1413 32.5119 38.525L46.5179 52.535L32.5079 66.545C32.0959 66.9294 31.7673 67.3944 31.5426 67.9112C31.318 68.428 31.202 68.9855 31.202 69.549C31.202 70.1125 31.318 70.67 31.5426 71.1868C31.7673 71.7036 32.0959 72.1686 32.5079 72.553C32.9005 72.9509 33.3682 73.2668 33.8839 73.4825C34.3996 73.6981 34.953 73.8092 35.5119 73.8092C36.0709 73.8092 36.6243 73.6981 37.14 73.4825C37.6557 73.2668 38.1234 72.9509 38.5159 72.553L52.5259 58.543L66.5399 72.554C67.3392 73.3459 68.4188 73.7902 69.5439 73.7902C70.6691 73.7902 71.7487 73.3459 72.5479 72.554C72.9453 72.1609 73.2606 71.6928 73.4756 71.1768C73.6905 70.6608 73.8008 70.1073 73.8001 69.5483C73.7994 68.9894 73.6876 68.4361 73.4713 67.9207C73.2549 67.4053 72.9384 66.938 72.5399 66.546Z" fill="#E46463"/>
</svg>
