<svg width="16" height="17" viewBox="0 0 16 17" fill="none" xmlns="http://www.w3.org/2000/svg">
<mask id="mask0_6485_26531" style="mask-type:luminance" maskUnits="userSpaceOnUse" x="0" y="0" width="12" height="17">
<path d="M11.6364 0.5H0V16.5H11.6364V0.5Z" fill="white"/>
</mask>
<g mask="url(#mask0_6485_26531)">
<path d="M7.91273 4.75C7.78928 4.75 7.67089 4.69732 7.5836 4.60355C7.49631 4.50979 7.44727 4.38261 7.44727 4.25V0.5H2.32727C1.71061 0.501978 1.11973 0.766006 0.683677 1.23442C0.247627 1.70283 0.00184172 2.33757 0 3L0 14C0.00184172 14.6624 0.247627 15.2972 0.683677 15.7656C1.11973 16.234 1.71061 16.498 2.32727 16.5H9.30909C9.92576 16.498 10.5166 16.234 10.9527 15.7656C11.3887 15.2972 11.6345 14.6624 11.6364 14V4.75H7.91273Z" fill="white"/>
<path d="M8.37793 0.5V3.75H11.4034L8.37793 0.5Z" fill="white"/>
</g>
<mask id="mask1_6485_26531" style="mask-type:luminance" maskUnits="userSpaceOnUse" x="9" y="6" width="7" height="6">
<path d="M9.30909 11.8848L16 11.8848L16 6.12477L9.30909 6.12477L9.30909 11.8848Z" fill="white"/>
</mask>
<g mask="url(#mask1_6485_26531)">
<path d="M15.1329 9.93632L12.4938 9.93632L12.6491 10.1032C12.8347 10.2973 12.9411 10.5626 12.9449 10.8409C12.9487 11.1191 12.8497 11.3876 12.6695 11.5876C12.5792 11.6848 12.4714 11.7613 12.3526 11.8123C12.2339 11.8634 12.1067 11.8879 11.9789 11.8844C11.7186 11.8791 11.4706 11.7647 11.2877 11.5657L9.60564 9.75944C9.57935 9.73088 9.55449 9.70084 9.53117 9.66944C9.38847 9.48359 9.31013 9.25036 9.3095 9.00944C9.3095 9.00569 9.3095 8.98257 9.3095 8.98069C9.31242 8.74855 9.38921 8.52447 9.5271 8.34569C9.55142 8.31249 9.57745 8.28077 9.60506 8.25069L11.2877 6.44257C11.4708 6.24366 11.7191 6.1295 11.9795 6.12444C12.1072 6.12098 12.2342 6.14545 12.3528 6.19638C12.4714 6.24731 12.5792 6.32363 12.6695 6.42069C12.8499 6.62065 12.949 6.88931 12.9452 7.16772C12.9414 7.44612 12.8349 7.71153 12.6491 7.90569L12.4938 8.07194L15.1329 8.07194C15.3592 8.07824 15.5742 8.17921 15.7322 8.35334C15.8901 8.52748 15.9785 8.761 15.9785 9.00413C15.9785 9.24727 15.8901 9.48078 15.7322 9.65492C15.5742 9.82905 15.3592 9.93002 15.1329 9.93632Z" fill="#FF0000"/>
</g>
</svg>
