<svg width="106" height="105" viewBox="0 0 106 105" fill="none" xmlns="http://www.w3.org/2000/svg">
<mask id="mask0_4298_221259" style="mask-type:luminance" maskUnits="userSpaceOnUse" x="46" y="24" width="14" height="57">
<path d="M59.73 24.897H46.271V80.067H59.73V24.897Z" fill="white"/>
</mask>
<g mask="url(#mask0_4298_221259)">
<path d="M58.385 26.4349C57.9338 25.9337 57.379 25.5366 56.7591 25.2711C56.1393 25.0055 55.4691 24.8778 54.795 24.8969H51.206C50.5337 24.8882 49.867 25.0206 49.249 25.2855C48.6309 25.5504 48.0753 25.942 47.618 26.4349C47.1512 26.9235 46.7915 27.5042 46.5618 28.1397C46.3321 28.7752 46.2375 29.4517 46.284 30.1259L48.13 56.2759C48.2108 57.4991 48.7537 58.6459 49.6486 59.4836C50.5436 60.3214 51.7236 60.7876 52.9495 60.7876C54.1754 60.7876 55.3554 60.3214 56.2504 59.4836C57.1453 58.6459 57.6882 57.4991 57.769 56.2759L59.718 30.1259C59.7562 29.4525 59.6578 28.7784 59.4287 28.1441C59.1997 27.5098 58.8446 26.9284 58.385 26.4349Z" fill="#FF957B"/>
<path d="M53.0521 68.582C54.1879 68.582 55.2983 68.9189 56.2427 69.5499C57.1872 70.1809 57.9232 71.0779 58.3579 72.1273C58.7926 73.1767 58.9063 74.3314 58.6847 75.4454C58.4631 76.5595 57.9162 77.5828 57.113 78.3859C56.3098 79.1891 55.2865 79.7361 54.1725 79.9577C53.0585 80.1793 51.9037 80.0655 50.8543 79.6309C49.8049 79.1962 48.908 78.4601 48.277 77.5157C47.6459 76.5712 47.3091 75.4609 47.3091 74.325C47.309 73.5708 47.4574 72.824 47.746 72.1271C48.0345 71.4303 48.4576 70.7971 48.9909 70.2638C49.5242 69.7305 50.1573 69.3075 50.8542 69.0189C51.551 68.7304 52.2979 68.5819 53.0521 68.582Z" fill="#FF957B"/>
</g>
<mask id="mask1_4298_221259" style="mask-type:luminance" maskUnits="userSpaceOnUse" x="0" y="0" width="106" height="105">
<path d="M105.5 0H0.5V105H105.5V0Z" fill="white"/>
</mask>
<g mask="url(#mask1_4298_221259)">
<path d="M52.627 0.486816C42.3173 0.486816 32.2391 3.54401 23.6668 9.2718C15.0946 14.9996 8.41332 23.1407 4.46796 32.6657C0.522586 42.1906 -0.509703 52.6716 1.50163 62.7833C3.51296 72.8949 8.47758 82.1831 15.7677 89.4732C23.0578 96.7633 32.3459 101.728 42.4576 103.739C52.5692 105.751 63.0502 104.718 72.5752 100.773C82.1001 96.8275 90.2412 90.1463 95.969 81.574C101.697 73.0018 104.754 62.9236 104.754 52.6138C104.754 45.7683 103.406 38.9898 100.787 32.6654C98.1671 26.3409 94.3275 20.5944 89.487 15.7539C84.6465 10.9134 78.8999 7.07375 72.5755 4.45421C66.251 1.83468 59.4725 0.486554 52.627 0.486816ZM52.627 98.2258C43.6061 98.2256 34.7878 95.5504 27.2873 90.5386C19.7867 85.5267 13.9408 78.4032 10.4888 70.0689C7.0367 61.7346 6.13353 52.5639 7.89347 43.7163C9.65342 34.8687 13.9974 26.7417 20.3762 20.363C26.7549 13.9842 34.8819 9.64021 43.7295 7.88027C52.5771 6.12033 61.7479 7.02349 70.0821 10.4756C78.4164 13.9276 85.5399 19.7735 90.5518 27.2741C95.5636 34.7746 98.2388 43.5929 98.239 52.6138C98.2261 64.7069 93.4164 76.3009 84.8652 84.852C76.3141 93.4031 64.7201 98.2128 52.627 98.2258Z" fill="#FF957B"/>
</g>
</svg>
