<svg width="14" height="14" viewBox="0 0 14 14" fill="none" xmlns="http://www.w3.org/2000/svg">
<mask id="mask0_3551_117051" style="mask-type:luminance" maskUnits="userSpaceOnUse" x="0" y="0" width="14" height="14">
<path d="M14 0H0V14H14V0Z" fill="white"/>
</mask>
<g mask="url(#mask0_3551_117051)">
<path d="M13.72 12.3395L9.78037 8.39854C10.4039 7.50843 10.734 6.44588 10.7247 5.35914C10.7275 4.64344 10.5846 3.93465 10.3047 3.27594C10.0401 2.63517 9.6513 2.05313 9.16063 1.56342C8.66996 1.07371 8.08716 0.686029 7.44587 0.422744C6.78666 0.143757 6.07814 0 5.36232 0C4.64651 0 3.93798 0.143757 3.27877 0.422744C2.63732 0.686517 2.05445 1.07469 1.56378 1.56488C1.07312 2.05506 0.684371 2.63755 0.41997 3.27874C0.141041 3.93785 -0.00268555 4.64625 -0.00268555 5.36194C-0.00268555 6.07764 0.141041 6.78604 0.41997 7.44514C0.684318 8.08653 1.07303 8.66924 1.56369 9.15966C2.05435 9.65008 2.63725 10.0385 3.27877 10.3025C3.93747 10.5825 4.64626 10.7254 5.36197 10.7225C6.44812 10.7323 7.51021 10.4027 8.39997 9.77964L12.3375 13.7101C12.4246 13.8043 12.5308 13.8788 12.649 13.9287C12.7671 13.9787 12.8945 14.003 13.0228 13.9999C13.2154 14.0006 13.404 13.9443 13.5646 13.8379C13.7252 13.7315 13.8508 13.58 13.9254 13.4024C13.9999 13.2247 14.0202 13.029 13.9837 12.8398C13.9471 12.6507 13.8554 12.4766 13.72 12.3395ZM7.76997 7.77344C7.45774 8.09607 7.08278 8.35138 6.66818 8.52365C6.25357 8.69592 5.8081 8.78151 5.35917 8.77514C4.91024 8.78151 4.46477 8.69592 4.05016 8.52365C3.63556 8.35138 3.2606 8.09607 2.94837 7.77344C2.62618 7.46107 2.37139 7.086 2.19971 6.67138C2.02803 6.25675 1.94311 5.81135 1.95017 5.36264C1.94352 4.91368 2.02897 4.46811 2.20126 4.05347C2.37355 3.63882 2.62901 3.2639 2.95187 2.95184C3.26395 2.62902 3.63888 2.37358 4.05352 2.20129C4.46816 2.02901 4.91371 1.94353 5.36267 1.95014C5.81104 1.94401 6.25593 2.02972 6.66993 2.20199C7.08394 2.37426 7.4583 2.62945 7.76997 2.95184C8.0926 3.26407 8.3479 3.63903 8.52017 4.05364C8.69245 4.46824 8.77803 4.91372 8.77167 5.36264C8.77803 5.81157 8.69245 6.25705 8.52017 6.67165C8.3479 7.08626 8.0926 7.46122 7.76997 7.77344Z" fill="#041942"/>
</g>
</svg>
