<svg width="105" height="105" viewBox="0 0 105 105" fill="none" xmlns="http://www.w3.org/2000/svg">
<path d="M50.218 100.435C76.6916 100.435 98.1528 78.9739 98.1528 52.5002C98.1528 26.0266 76.6916 4.56543 50.218 4.56543C23.7443 4.56543 2.2832 26.0266 2.2832 52.5002C2.2832 78.9739 23.7443 100.435 50.218 100.435Z" fill="white"/>
<mask id="mask0_5800_64270" style="mask-type:luminance" maskUnits="userSpaceOnUse" x="0" y="0" width="105" height="105">
<path d="M105 0H0V105H105V0Z" fill="white"/>
</mask>
<g mask="url(#mask0_5800_64270)">
<path d="M51.587 1.54785C41.384 1.54785 31.4102 4.57337 22.9268 10.2418C14.4434 15.9103 7.83134 23.9671 3.92685 33.3933C0.0223518 42.8196 -0.999242 53.192 0.991252 63.1989C2.98175 73.2058 7.89493 82.3977 15.1095 89.6123C22.3241 96.8269 31.516 101.74 41.5229 103.731C51.5298 105.721 61.9022 104.699 71.3285 100.795C80.7547 96.8904 88.8115 90.2784 94.48 81.795C100.148 73.3116 103.174 63.3377 103.174 53.1348C103.174 39.4531 97.7389 26.3318 88.0645 16.6573C78.39 6.98289 65.2687 1.54785 51.587 1.54785ZM51.587 98.2939C40.6033 98.2989 29.9941 94.3014 21.7447 87.0495C13.4954 79.7976 8.17112 69.7882 6.76832 58.8944C5.36551 48.0006 7.98027 36.969 14.1233 27.8637C20.2663 18.7585 29.5167 12.2037 40.1433 9.42581C50.77 6.64795 62.0447 7.83744 71.8577 12.7717C81.6708 17.7059 89.3496 26.0468 93.4573 36.2335C97.5651 46.4202 97.8202 57.7546 94.175 68.1158C90.5298 78.4771 83.234 87.155 73.653 92.5258C66.9219 96.3286 59.3179 98.3163 51.587 98.2939Z" fill="#00CE92"/>
</g>
<mask id="mask1_5800_64270" style="mask-type:luminance" maskUnits="userSpaceOnUse" x="29" y="31" width="49" height="45">
<path d="M77.6086 31.959H29.6738V75.3286H77.6086V31.959Z" fill="white"/>
</mask>
<g mask="url(#mask1_5800_64270)">
<path d="M72.2561 35.1593C70.971 34.241 69.3796 33.8575 67.8173 34.0896C66.255 34.3217 64.8438 35.1512 63.8812 36.4033L46.3621 60.1424L46.3439 60.2223L46.2937 60.0717L39.7517 53.3951C38.6378 52.2746 37.1326 51.6301 35.553 51.5974C33.9734 51.5646 32.4427 52.146 31.2832 53.2193C30.718 53.7463 30.2641 54.3811 29.9483 55.0864C29.6325 55.7918 29.4613 56.5532 29.4447 57.3258C29.4281 58.0984 29.5665 58.8665 29.8517 59.5847C30.1369 60.3029 30.5631 60.9567 31.1052 61.5074L42.6369 73.2789C42.8765 73.5196 43.1362 73.7395 43.413 73.9362L43.4906 73.9865C43.5728 74.0412 43.6573 74.096 43.7371 74.1485C43.817 74.201 43.9152 74.2604 44.0065 74.3106L44.2348 74.4224C44.3443 74.4749 44.4493 74.532 44.5612 74.5777L44.7301 74.6461C44.8602 74.6964 44.9857 74.7466 45.1181 74.7877L45.2505 74.8265C45.392 74.8676 45.5336 74.9064 45.6796 74.9383L45.8052 74.9611C45.9536 74.9885 46.0974 75.0136 46.2434 75.0319L46.4055 75.0433C46.5379 75.0547 46.6703 75.0661 46.8073 75.0707C46.8826 75.0707 46.9602 75.0707 47.0355 75.0707C47.1108 75.0707 47.2638 75.0707 47.3619 75.0707C47.4601 75.0707 47.5765 75.0502 47.6838 75.0387L47.912 75.0091C48.0444 74.9885 48.1768 74.9611 48.3069 74.9337C48.3617 74.9223 48.4119 74.9132 48.4644 74.8995C48.6082 74.8653 48.752 74.8196 48.889 74.7762L49.0123 74.7352C49.1515 74.6872 49.2862 74.6302 49.4231 74.5708L49.5487 74.5183C49.6719 74.459 49.7929 74.3951 49.9139 74.3266C49.9687 74.2969 50.0234 74.2718 50.0737 74.2376C50.1787 74.1782 50.2791 74.112 50.3773 74.0435L50.5758 73.9066C50.6603 73.8449 50.7379 73.7765 50.8201 73.7126L51.0483 73.5208C51.0689 73.498 51.0963 73.482 51.1168 73.4592C51.3656 73.2292 51.5947 72.9787 51.8016 72.7105L73.5252 43.3493C73.988 42.7314 74.3228 42.0272 74.5097 41.2781C74.6967 40.5291 74.7321 39.7502 74.6139 38.9873C74.4956 38.2243 74.2262 37.4927 73.8213 36.8353C73.4164 36.178 72.8842 35.6081 72.2561 35.1593Z" fill="#00CE92"/>
</g>
</svg>
