<svg width="174" height="25" viewBox="0 0 174 25" fill="none" xmlns="http://www.w3.org/2000/svg">
<path d="M141.675 7.42909V0.0402832H146.649V7.42909C146.649 8.80107 147.75 9.89253 149.135 9.89253H164.054V14.8194H149.135C145.015 14.8194 141.675 11.5113 141.675 7.42909ZM144.162 19.7448H166.54C167.925 19.7448 169.027 18.6533 169.027 17.2813V0.0402832H174V17.2813C174 21.3636 170.661 24.6717 166.542 24.6717H144.163V19.7448H144.162Z" fill="white"/>
<path d="M19.8916 19.7446H0V24.6715H19.8916V19.7446Z" fill="white"/>
<path d="M7.44154 0.0402832H2.48682V4.96564H7.44154V14.8194H12.4133V4.96564V0.0402832H7.44154Z" fill="white"/>
<path d="M91.9303 0.0402832H74.5594C70.431 0.0402832 67.084 3.35605 67.084 7.44595V17.2645C67.084 21.3544 70.431 24.6701 74.5594 24.6701H91.9303C96.0588 24.6701 99.4057 21.3544 99.4057 17.2645V7.44595C99.4057 3.35605 96.0588 0.0402832 91.9303 0.0402832ZM94.434 19.7463H72.0758V4.96564H94.434V19.7448V19.7463Z" fill="white"/>
<path d="M134.121 11.7091C134.991 10.5012 135.508 9.02648 135.508 7.42915C135.508 3.35152 132.172 0.0449501 128.054 0.0449501V0.0388184H110.604C107.166 0.0388184 104.377 2.80119 104.377 6.2074V18.5032C104.377 21.9094 107.166 24.6717 110.604 24.6717H129.241V24.6656C133.357 24.6656 136.693 21.3606 136.693 17.2814C136.693 15.054 135.693 13.0612 134.118 11.7076L134.121 11.7091ZM109.394 4.96724H128.052C129.427 4.96724 130.539 6.06943 130.539 7.43069C130.539 8.79194 129.427 9.89413 128.052 9.89413H109.394V4.96571V4.96724ZM129.242 19.7464H109.394V14.8195H129.242C130.615 14.8195 131.729 15.9217 131.729 17.2829C131.729 18.6442 130.616 19.7464 129.242 19.7464Z" fill="white"/>
<path d="M58.9878 0.385154C58.9878 0.385154 58.8795 0.339166 58.6891 0.279381C58.6211 0.25792 58.5514 0.239524 58.4818 0.219596C58.457 0.213464 58.4338 0.207332 58.4075 0.2012C58.2682 0.16441 58.1274 0.133751 57.9835 0.109224C57.377 -0.00114846 56.529 -0.0624663 55.5418 0.100026C55.4953 0.107691 55.4536 0.110757 55.4056 0.119954C55.1054 0.173607 54.7774 0.254854 54.4338 0.371358C54.4199 0.375956 54.406 0.379022 54.3967 0.383621C53.1309 0.822044 51.6393 1.76021 50.3472 3.73004C50.3441 3.73618 50.341 3.74077 50.3364 3.74691C50.0872 4.10715 49.852 4.48885 49.6261 4.89048C48.9778 6.04786 48.4238 7.36466 47.9224 8.7949C47.2462 10.7218 46.6582 12.6901 46.1754 14.6707C46.0207 15.3038 45.8072 15.943 45.3785 16.4366C44.8803 17.0084 44.2056 17.2537 43.4629 17.2721C42.7186 17.2537 42.0455 17.0084 41.5472 16.4366C41.1186 15.943 40.9051 15.3038 40.7503 14.6707C40.2675 12.6901 39.6795 10.7218 39.0033 8.7949C38.502 7.36466 37.948 6.04786 37.2996 4.89048C37.0753 4.48885 36.8385 4.10715 36.5894 3.74691C36.5863 3.74077 36.5832 3.73618 36.5786 3.73004C35.2865 1.76021 33.7948 0.820511 32.5291 0.383621C32.5198 0.379022 32.5058 0.375956 32.4919 0.371358C32.1484 0.254854 31.8204 0.172075 31.5202 0.119954C31.4722 0.110757 31.4304 0.107691 31.384 0.100026C30.3968 -0.0639993 29.5503 -0.00114846 28.9422 0.109224C28.7983 0.133751 28.6575 0.16441 28.5182 0.2012C28.4919 0.207332 28.4687 0.213464 28.444 0.219596C28.3743 0.239524 28.3047 0.25792 28.2366 0.279381C28.0463 0.339166 27.938 0.385154 27.938 0.385154C26.1151 1.11024 24.8169 2.88232 24.8169 4.95793V24.6716H29.7902V4.961C30.0331 4.9656 30.2652 4.99779 30.4865 5.05604C30.5964 5.08517 30.7047 5.11889 30.8099 5.16028C31.8281 5.60177 32.6296 6.61352 33.2579 7.80462C33.541 8.36108 33.7964 8.97272 34.0331 9.61962C34.5592 11.0575 34.9909 12.661 35.4118 14.1771C35.531 14.594 35.6486 14.988 35.7677 15.3682C35.9348 15.9354 36.0819 16.4259 36.1855 16.7662C36.43 17.5772 36.7906 18.3559 37.2826 19.0503C38.5004 20.7641 40.4285 21.943 42.6474 22.1607C42.8903 22.1852 43.2153 22.2005 43.466 22.2005C43.7166 22.2005 44.0401 22.1837 44.2845 22.1607C46.5035 21.9445 48.4315 20.7657 49.6493 19.0503C50.1414 18.3574 50.5019 17.5772 50.7464 16.7662C50.8485 16.4244 50.9955 15.9338 51.1642 15.3682C51.2834 14.988 51.401 14.594 51.5201 14.1771C51.9425 12.6625 52.3727 11.0591 52.8988 9.61962C53.1356 8.97272 53.3909 8.36108 53.6741 7.80462C54.3023 6.61352 55.1038 5.60177 56.122 5.16028C56.2273 5.11889 56.3356 5.08517 56.4454 5.05604C56.6667 4.99779 56.8988 4.9656 57.1418 4.961V24.6716H62.1151V4.95793C62.1151 2.88232 60.8168 1.11024 58.994 0.385154H58.9878Z" fill="white"/>
</svg>
